<svg width="29" height="21" viewBox="0 0 29 21" fill="none" xmlns="http://www.w3.org/2000/svg">
<path d="M0.193848 10.5C0.193848 16.299 4.89486 21 10.6938 21H11.6938C17.4928 21 22.1938 16.299 22.1938 10.5C22.1938 4.70101 17.4928 0 11.6938 0H10.6938C4.89486 0 0.193848 4.70101 0.193848 10.5Z" fill="#ABB2BF"/>
<mask id="path-2-outside-1_1510_1962" maskUnits="userSpaceOnUse" x="-0.806152" y="5" width="26" height="14" fill="black">
<rect fill="white" x="-0.806152" y="5" width="26" height="14"/>
<path d="M1 11.979C1 11.2723 1.1333 10.6143 1.3999 10.0049C1.6665 9.39128 2.0516 8.86019 2.55518 8.41162C3.06299 7.95882 3.68083 7.60335 4.40869 7.34521C5.14079 7.08708 5.9681 6.95801 6.89062 6.95801C7.69889 6.95801 8.43945 7.04053 9.1123 7.20557C9.78939 7.36637 10.4178 7.61393 10.9976 7.94824L10.0708 9.47168C9.8973 9.35742 9.69629 9.25586 9.46777 9.16699C9.24349 9.07812 9.00228 9.00407 8.74414 8.94482C8.49023 8.88135 8.22575 8.83268 7.95068 8.79883C7.67985 8.76497 7.41113 8.74805 7.14453 8.74805C6.5013 8.74805 5.9279 8.82845 5.42432 8.98926C4.92074 9.14583 4.49544 9.368 4.14844 9.65576C3.80566 9.93929 3.54329 10.2799 3.36133 10.6777C3.18359 11.0713 3.09473 11.505 3.09473 11.979C3.09473 12.4699 3.18783 12.9206 3.37402 13.3311C3.56022 13.7415 3.82894 14.097 4.18018 14.3975C4.53564 14.6937 4.96729 14.9264 5.4751 15.0957C5.98714 15.2607 6.56478 15.3433 7.20801 15.3433C7.5 15.3433 7.78988 15.3221 8.07764 15.2798C8.3654 15.2375 8.64258 15.1803 8.90918 15.1084C9.18001 15.0322 9.44027 14.9434 9.68994 14.8418C9.93962 14.736 10.1724 14.6217 10.3882 14.499L11.3149 16.0225C10.7733 16.3695 10.147 16.6424 9.43604 16.8413C8.7251 17.036 7.96973 17.1333 7.16992 17.1333C6.15007 17.1333 5.25505 17.0021 4.48486 16.7397C3.71468 16.4731 3.07145 16.1092 2.55518 15.6479C2.0389 15.1825 1.64958 14.6366 1.38721 14.0103C1.12907 13.3797 1 12.7026 1 11.979ZM12.21 7.07861H14.438L17.5547 14.645L20.6714 7.07861H22.8994L18.5513 17H16.5581L12.21 7.07861Z"/>
</mask>
<path d="M1 11.979C1 11.2723 1.1333 10.6143 1.3999 10.0049C1.6665 9.39128 2.0516 8.86019 2.55518 8.41162C3.06299 7.95882 3.68083 7.60335 4.40869 7.34521C5.14079 7.08708 5.9681 6.95801 6.89062 6.95801C7.69889 6.95801 8.43945 7.04053 9.1123 7.20557C9.78939 7.36637 10.4178 7.61393 10.9976 7.94824L10.0708 9.47168C9.8973 9.35742 9.69629 9.25586 9.46777 9.16699C9.24349 9.07812 9.00228 9.00407 8.74414 8.94482C8.49023 8.88135 8.22575 8.83268 7.95068 8.79883C7.67985 8.76497 7.41113 8.74805 7.14453 8.74805C6.5013 8.74805 5.9279 8.82845 5.42432 8.98926C4.92074 9.14583 4.49544 9.368 4.14844 9.65576C3.80566 9.93929 3.54329 10.2799 3.36133 10.6777C3.18359 11.0713 3.09473 11.505 3.09473 11.979C3.09473 12.4699 3.18783 12.9206 3.37402 13.3311C3.56022 13.7415 3.82894 14.097 4.18018 14.3975C4.53564 14.6937 4.96729 14.9264 5.4751 15.0957C5.98714 15.2607 6.56478 15.3433 7.20801 15.3433C7.5 15.3433 7.78988 15.3221 8.07764 15.2798C8.3654 15.2375 8.64258 15.1803 8.90918 15.1084C9.18001 15.0322 9.44027 14.9434 9.68994 14.8418C9.93962 14.736 10.1724 14.6217 10.3882 14.499L11.3149 16.0225C10.7733 16.3695 10.147 16.6424 9.43604 16.8413C8.7251 17.036 7.96973 17.1333 7.16992 17.1333C6.15007 17.1333 5.25505 17.0021 4.48486 16.7397C3.71468 16.4731 3.07145 16.1092 2.55518 15.6479C2.0389 15.1825 1.64958 14.6366 1.38721 14.0103C1.12907 13.3797 1 12.7026 1 11.979ZM12.21 7.07861H14.438L17.5547 14.645L20.6714 7.07861H22.8994L18.5513 17H16.5581L12.21 7.07861Z" fill="#282C33"/>
<path d="M1.3999 10.0049L2.31606 10.4057L2.31707 10.4034L1.3999 10.0049ZM2.55518 8.41162L3.22032 9.15834L3.2207 9.158L2.55518 8.41162ZM4.40869 7.34521L4.07616 6.40212L4.07444 6.40273L4.40869 7.34521ZM9.1123 7.20557L8.87408 8.1768L8.88123 8.1785L9.1123 7.20557ZM10.9976 7.94824L11.8519 8.46796L12.384 7.59335L11.4971 7.08195L10.9976 7.94824ZM10.0708 9.47168L9.52081 10.3069L10.3865 10.8769L10.9251 9.9914L10.0708 9.47168ZM9.46777 9.16699L9.0994 10.0967L9.10533 10.099L9.46777 9.16699ZM8.74414 8.94482L8.5016 9.91497L8.511 9.91732L8.52045 9.91948L8.74414 8.94482ZM7.95068 8.79883L7.82665 9.79111L7.82853 9.79134L7.95068 8.79883ZM5.42432 8.98926L5.72123 9.94419L5.72851 9.94187L5.42432 8.98926ZM4.14844 9.65576L4.78581 10.4263L4.78677 10.4255L4.14844 9.65576ZM3.36133 10.6777L2.45195 10.2617L2.44996 10.2661L3.36133 10.6777ZM3.37402 13.3311L2.46334 13.7442L3.37402 13.3311ZM4.18018 14.3975L3.53008 15.1574L3.53999 15.1657L4.18018 14.3975ZM5.4751 15.0957L5.15885 16.0444L5.16832 16.0475L5.4751 15.0957ZM8.90918 15.1084L9.16972 16.0739L9.17993 16.071L8.90918 15.1084ZM9.68994 14.8418L10.0667 15.7681L10.0734 15.7654L10.0801 15.7625L9.68994 14.8418ZM10.3882 14.499L11.2425 13.9793L10.7379 13.1498L9.89388 13.6297L10.3882 14.499ZM11.3149 16.0225L11.8544 16.8645L12.6771 16.3375L12.1693 15.5027L11.3149 16.0225ZM9.43604 16.8413L9.70013 17.8058L9.70545 17.8043L9.43604 16.8413ZM4.48486 16.7397L4.15775 17.6847L4.1624 17.6863L4.48486 16.7397ZM2.55518 15.6479L1.88553 16.3906L1.88892 16.3937L2.55518 15.6479ZM1.38721 14.0103L0.461728 14.3891L0.464869 14.3966L1.38721 14.0103ZM1 11.979H2C2 11.4015 2.10816 10.8809 2.31606 10.4057L1.3999 10.0049L0.483745 9.60406C0.158439 10.3476 0 11.1431 0 11.979H1ZM1.3999 10.0049L2.31707 10.4034C2.52542 9.92384 2.8241 9.51127 3.22032 9.15834L2.55518 8.41162L1.89003 7.6649C1.27909 8.2091 0.807585 8.85871 0.482732 9.60639L1.3999 10.0049ZM2.55518 8.41162L3.2207 9.158C3.61964 8.80227 4.12077 8.50835 4.74294 8.2877L4.40869 7.34521L4.07444 6.40273C3.24089 6.69835 2.50633 7.11537 1.88965 7.66524L2.55518 8.41162ZM4.40869 7.34521L4.74123 8.28831C5.34852 8.07417 6.06058 7.95801 6.89062 7.95801V6.95801V5.95801C5.87562 5.95801 4.93306 6.09998 4.07616 6.40212L4.40869 7.34521ZM6.89062 6.95801V7.95801C7.63158 7.95801 8.29085 8.03372 8.87408 8.17678L9.1123 7.20557L9.35053 6.23436C8.58805 6.04733 7.7662 5.95801 6.89062 5.95801V6.95801ZM9.1123 7.20557L8.88123 8.1785C9.46791 8.31784 10.0054 8.53048 10.498 8.81453L10.9976 7.94824L11.4971 7.08195C10.8302 6.69739 10.1109 6.41491 9.34338 6.23263L9.1123 7.20557ZM10.9976 7.94824L10.1432 7.42852L9.21646 8.95196L10.0708 9.47168L10.9251 9.9914L11.8519 8.46796L10.9976 7.94824ZM10.0708 9.47168L10.6208 8.63651C10.3789 8.47725 10.1131 8.34499 9.83022 8.23499L9.46777 9.16699L9.10533 10.099C9.2795 10.1667 9.41565 10.2376 9.52081 10.3069L10.0708 9.47168ZM9.46777 9.16699L9.83614 8.23731C9.56054 8.12811 9.27054 8.03964 8.96783 7.97016L8.74414 8.94482L8.52045 9.91948C8.73402 9.9685 8.92644 10.0281 9.09941 10.0967L9.46777 9.16699ZM8.74414 8.94482L8.98668 7.97468C8.6909 7.90074 8.38609 7.84487 8.07284 7.80632L7.95068 8.79883L7.82853 9.79134C8.06541 9.82049 8.28957 9.86196 8.5016 9.91497L8.74414 8.94482ZM7.95068 8.79883L8.07472 7.80655C7.76372 7.76767 7.45357 7.74805 7.14453 7.74805V8.74805V9.74805C7.3687 9.74805 7.59598 9.76227 7.82665 9.79111L7.95068 8.79883ZM7.14453 8.74805V7.74805C6.41963 7.74805 5.74067 7.83849 5.12012 8.03665L5.42432 8.98926L5.72851 9.94187C6.11512 9.81841 6.58298 9.74805 7.14453 9.74805V8.74805ZM5.42432 8.98926L5.12741 8.03435C4.51991 8.22324 3.9733 8.50189 3.5101 8.886L4.14844 9.65576L4.78677 10.4255C5.01759 10.2341 5.32156 10.0684 5.72122 9.94417L5.42432 8.98926ZM4.14844 9.65576L3.51106 8.88521C3.05408 9.26321 2.69777 9.72438 2.45196 10.2617L3.36133 10.6777L4.2707 11.0937C4.38881 10.8355 4.55725 10.6154 4.78581 10.4263L4.14844 9.65576ZM3.36133 10.6777L2.44996 10.2661C2.20831 10.8012 2.09473 11.3771 2.09473 11.979H3.09473H4.09473C4.09473 11.633 4.15887 11.3414 4.2727 11.0893L3.36133 10.6777ZM3.09473 11.979H2.09473C2.09473 12.5995 2.21319 13.1927 2.46334 13.7442L3.37402 13.3311L4.28471 12.918C4.16246 12.6484 4.09473 12.3402 4.09473 11.979H3.09473ZM3.37402 13.3311L2.46334 13.7442C2.71156 14.2914 3.0706 14.7643 3.53014 15.1574L4.18018 14.3975L4.83021 13.6376C4.58727 13.4297 4.40888 13.1917 4.28471 12.918L3.37402 13.3311ZM4.18018 14.3975L3.53999 15.1657C4.00503 15.5532 4.55107 15.8418 5.15887 16.0444L5.4751 15.0957L5.79133 14.147C5.3835 14.0111 5.06626 13.8342 4.82036 13.6292L4.18018 14.3975ZM5.4751 15.0957L5.16832 16.0475C5.79668 16.25 6.48038 16.3433 7.20801 16.3433V15.3433V14.3433C6.64918 14.3433 6.1776 14.2715 5.78187 14.1439L5.4751 15.0957ZM7.20801 15.3433V16.3433C7.5485 16.3433 7.88701 16.3186 8.22313 16.2691L8.07764 15.2798L7.93214 14.2904C7.69275 14.3256 7.4515 14.3433 7.20801 14.3433V15.3433ZM8.07764 15.2798L8.22313 16.2691C8.54762 16.2214 8.86332 16.1565 9.1697 16.0739L8.90918 15.1084L8.64866 14.1429C8.42184 14.2041 8.18317 14.2535 7.93214 14.2904L8.07764 15.2798ZM8.90918 15.1084L9.17993 16.071C9.4852 15.9852 9.78095 15.8843 10.0667 15.7681L9.68994 14.8418L9.31314 13.9155C9.09958 14.0024 8.87483 14.0793 8.63843 14.1457L8.90918 15.1084ZM9.68994 14.8418L10.0801 15.7625C10.3622 15.643 10.6301 15.5118 10.8825 15.3683L10.3882 14.499L9.89388 13.6297C9.71466 13.7316 9.517 13.829 9.29979 13.921L9.68994 14.8418ZM10.3882 14.499L9.53385 15.0187L10.4606 16.5422L11.3149 16.0225L12.1693 15.5027L11.2425 13.9793L10.3882 14.499ZM11.3149 16.0225L10.7755 15.1804C10.3286 15.4667 9.79586 15.7022 9.16662 15.8783L9.43604 16.8413L9.70545 17.8043C10.4981 17.5826 11.2179 17.2722 11.8544 16.8645L11.3149 16.0225ZM9.43604 16.8413L9.17195 15.8768C8.55403 16.046 7.88804 16.1333 7.16992 16.1333V17.1333V18.1333C8.05142 18.1333 8.89616 18.0259 9.70012 17.8058L9.43604 16.8413ZM7.16992 17.1333V16.1333C6.23316 16.1333 5.45119 16.0125 4.80733 15.7932L4.48486 16.7397L4.1624 17.6863C5.0589 17.9917 6.06697 18.1333 7.16992 18.1333V17.1333ZM4.48486 16.7397L4.81197 15.7948C4.14508 15.5639 3.62309 15.2611 3.22143 14.9022L2.55518 15.6479L1.88892 16.3937C2.51982 16.9573 3.28428 17.3824 4.15775 17.6847L4.48486 16.7397ZM2.55518 15.6479L3.22481 14.9053C2.81532 14.536 2.51359 14.1109 2.30954 13.6239L1.38721 14.0103L0.464869 14.3966C0.785563 15.1622 1.26248 15.8289 1.88554 16.3906L2.55518 15.6479ZM1.38721 14.0103L2.31266 13.6314C2.10675 13.1284 2 12.5809 2 11.979H1H0C0 12.8244 0.151387 13.631 0.461759 14.3891L1.38721 14.0103ZM12.21 7.07861V6.07861H10.6799L11.2941 7.48002L12.21 7.07861ZM14.438 7.07861L15.3626 6.69775L15.1076 6.07861H14.438V7.07861ZM17.5547 14.645L16.6301 15.0259L17.5547 17.2706L18.4793 15.0259L17.5547 14.645ZM20.6714 7.07861V6.07861H20.0018L19.7468 6.69775L20.6714 7.07861ZM22.8994 7.07861L23.8153 7.48002L24.4295 6.07861H22.8994V7.07861ZM18.5513 17V18H19.2048L19.4672 17.4014L18.5513 17ZM16.5581 17L15.6422 17.4014L15.9045 18H16.5581V17ZM12.21 7.07861V8.07861H14.438V7.07861V6.07861H12.21V7.07861ZM14.438 7.07861L13.5134 7.45948L16.6301 15.0259L17.5547 14.645L18.4793 14.2642L15.3626 6.69775L14.438 7.07861ZM17.5547 14.645L18.4793 15.0259L21.596 7.45948L20.6714 7.07861L19.7468 6.69775L16.6301 14.2642L17.5547 14.645ZM20.6714 7.07861V8.07861H22.8994V7.07861V6.07861H20.6714V7.07861ZM22.8994 7.07861L21.9835 6.67721L17.6354 16.5986L18.5513 17L19.4672 17.4014L23.8153 7.48002L22.8994 7.07861ZM18.5513 17V16H16.5581V17V18H18.5513V17ZM16.5581 17L17.474 16.5986L13.1259 6.67721L12.21 7.07861L11.2941 7.48002L15.6422 17.4014L16.5581 17Z" fill="#282C33" mask="url(#path-2-outside-1_1510_1962)"/>
</svg>
