 <svg  version="1.0" xmlns="http://www.w3.org/2000/svg"  width="276.000000pt" height="194.000000pt" viewBox="0 0 276.000000 194.000000"  preserveAspectRatio="xMidYMid meet">  <g transform="translate(0.000000,194.000000) scale(0.050000,-0.050000)" fill="#ffffff" stroke="none"> <path d="M1470 2084 l-380 -235 0 -109 0 -109 379 -236 c437 -271 389 -253 446 -165 62 96 79 79 -285 298 -182 109 -330 204 -330 212 0 8 153 106 339 218 l340 205 -52 78 c-66 100 -18 116 -457 -157z"/> <path d="M3174 2247 c-62 -97 -90 -68 295 -299 182 -108 331 -202 331 -208 0 -5 -153 -103 -340 -217 -366 -222 -353 -207 -263 -322 l39 -48 393 245 393 246 -6 101 -6 101 -370 229 c-451 280 -408 264 -466 172z"/> <path d="M1805 1900 c-58 -35 -185 -202 -185 -242 0 -44 144 -62 172 -21 85 121 166 149 245 85 245 -199 359 -214 526 -71 126 107 181 125 242 81 25 -18 89 -64 142 -102 175 -126 353 -86 474 104 l60 95 -70 36 -70 36 -73 -81 c-95 -105 -149 -105 -278 2 -191 158 -293 162 -472 18 -151 -121 -181 -123 -308 -18 -157 130 -281 154 -405 78z"/> </g> </svg> 