 <svg  version="1.0" xmlns="http://www.w3.org/2000/svg"  width="132.000000pt" height="82.000000pt" viewBox="0 0 132.000000 82.000000"  preserveAspectRatio="xMidYMid meet">  <g transform="translate(0.000000,82.000000) scale(0.050000,-0.050000)" fill="#ffffff" stroke="none"> <path d="M1931 1061 c-34 -38 -33 -43 59 -149 l94 -111 -57 -50 c-66 -58 -111 -64 -148 -20 -86 103 -240 116 -349 29 -42 -33 -87 -60 -100 -60 -13 0 -58 27 -100 60 -105 84 -222 84 -317 0 -38 -33 -79 -60 -93 -60 -14 0 -55 27 -93 60 -54 47 -87 60 -157 60 -70 0 -103 -13 -157 -60 -83 -73 -120 -75 -175 -11 -44 50 -138 38 -138 -18 0 -142 295 -188 399 -62 39 47 98 37 174 -29 95 -83 211 -84 308 -1 85 73 119 75 179 11 85 -91 228 -91 336 0 77 64 102 63 184 -10 86 -77 223 -84 312 -17 32 24 2 -14 -67 -85 -139 -144 -143 -154 -77 -202 47 -34 48 -33 215 156 92 104 170 198 174 209 7 20 -331 399 -356 399 -8 0 -31 -18 -50 -39z"/> </g> </svg> 